{
    "asset" : {
        "generator" : "Khronos glTF Blender I/O v1.7.33",
        "version" : "2.0"
    },
    "scene" : 0,
    "scenes" : [
        {
            "name" : "Scene",
            "nodes" : [
                0
            ]
        }
    ],
    "nodes" : [
        {
            "mesh" : 0,
            "name" : "Medallion_V2.005",
            "rotation" : [
                0,
                0.9998477101325989,
                0,
                -0.017452169209718704
            ]
        }
    ],
    "animations" : [
        {
            "channels" : [
                {
                    "sampler" : 0,
                    "target" : {
                        "node" : 0,
                        "path" : "rotation"
                    }
                }
            ],
            "name" : "Medallion_V2.005Action.002",
            "samplers" : [
                {
                    "input" : 8,
                    "interpolation" : "LINEAR",
                    "output" : 9
                }
            ]
        }
    ],
    "materials" : [
        {
            "doubleSided" : true,
            "name" : "Mat1",
            "pbrMetallicRoughness" : {
                "baseColorTexture" : {
                    "index" : 0
                },
                "metallicFactor" : 0,
                "roughnessFactor" : 0.5
            }
        },
        {
            "doubleSided" : true,
            "name" : "Mat2",
            "pbrMetallicRoughness" : {
                "baseColorTexture" : {
                    "index" : 1
                },
                "metallicFactor" : 0,
                "roughnessFactor" : 0.5
            }
        }
    ],
    "meshes" : [
        {
            "name" : "Medallion_V2.005",
            "primitives" : [
                {
                    "attributes" : {
                        "POSITION" : 0,
                        "NORMAL" : 1,
                        "TEXCOORD_0" : 2
                    },
                    "indices" : 3,
                    "material" : 0
                },
                {
                    "attributes" : {
                        "POSITION" : 4,
                        "NORMAL" : 5,
                        "TEXCOORD_0" : 6
                    },
                    "indices" : 7,
                    "material" : 1
                }
            ]
        }
    ],
    "textures" : [
        {
            "sampler" : 0,
            "source" : 0
        },
        {
            "sampler" : 0,
            "source" : 1
        }
    ],
    "images" : [
        {
            "bufferView" : 4,
            "mimeType" : "image/png",
            "name" : "gold black"
        },
        {
            "bufferView" : 9,
            "mimeType" : "image/png",
            "name" : "back gold back"
        }
    ],
    "accessors" : [
        {
            "bufferView" : 0,
            "componentType" : 5126,
            "count" : 361,
            "max" : [
                0.9901800751686096,
                0.9901366829872131,
                0.21061605215072632
            ],
            "min" : [
                -0.9901764392852783,
                -0.9902199506759644,
                0.15065233409404755
            ],
            "type" : "VEC3"
        },
        {
            "bufferView" : 1,
            "componentType" : 5126,
            "count" : 361,
            "type" : "VEC3"
        },
        {
            "bufferView" : 2,
            "componentType" : 5126,
            "count" : 361,
            "type" : "VEC2"
        },
        {
            "bufferView" : 3,
            "componentType" : 5123,
            "count" : 2040,
            "type" : "SCALAR"
        },
        {
            "bufferView" : 5,
            "componentType" : 5126,
            "count" : 361,
            "max" : [
                0.9901800751686096,
                0.9901366829872131,
                0.15300807356834412
            ],
            "min" : [
                -0.9901764392852783,
                -0.9902199506759644,
                -0.2296675741672516
            ],
            "type" : "VEC3"
        },
        {
            "bufferView" : 6,
            "componentType" : 5126,
            "count" : 361,
            "type" : "VEC3"
        },
        {
            "bufferView" : 7,
            "componentType" : 5126,
            "count" : 361,
            "type" : "VEC2"
        },
        {
            "bufferView" : 8,
            "componentType" : 5123,
            "count" : 2040,
            "type" : "SCALAR"
        },
        {
            "bufferView" : 10,
            "componentType" : 5126,
            "count" : 39,
            "max" : [
                1.625
            ],
            "min" : [
                0.041666666666666664
            ],
            "type" : "SCALAR"
        },
        {
            "bufferView" : 11,
            "componentType" : 5126,
            "count" : 39,
            "type" : "VEC4"
        }
    ],
    "bufferViews" : [
        {
            "buffer" : 0,
            "byteLength" : 4332,
            "byteOffset" : 0
        },
        {
            "buffer" : 0,
            "byteLength" : 4332,
            "byteOffset" : 4332
        },
        {
            "buffer" : 0,
            "byteLength" : 2888,
            "byteOffset" : 8664
        },
        {
            "buffer" : 0,
            "byteLength" : 4080,
            "byteOffset" : 11552
        },
        {
            "buffer" : 0,
            "byteLength" : 675413,
            "byteOffset" : 15632
        },
        {
            "buffer" : 0,
            "byteLength" : 4332,
            "byteOffset" : 691048
        },
        {
            "buffer" : 0,
            "byteLength" : 4332,
            "byteOffset" : 695380
        },
        {
            "buffer" : 0,
            "byteLength" : 2888,
            "byteOffset" : 699712
        },
        {
            "buffer" : 0,
            "byteLength" : 4080,
            "byteOffset" : 702600
        },
        {
            "buffer" : 0,
            "byteLength" : 600264,
            "byteOffset" : 706680
        },
        {
            "buffer" : 0,
            "byteLength" : 156,
            "byteOffset" : 1306944
        },
        {
            "buffer" : 0,
            "byteLength" : 624,
            "byteOffset" : 1307100
        }
    ],
    "samplers" : [
        {
            "magFilter" : 9729,
            "minFilter" : 9987
        }
    ],
    "buffers" : [
        {
            "byteLength" : 1307724,
            "uri" : "data:application/octet-stream;base64,"
        }
    ]
}
